<svg version="1.1" xmlns="http://www.w3.org/2000/svg" xmlns:xlink="http://www.w3.org/1999/xlink" x="0px" y="0px"
	 viewBox="0 0 305 305" style="enable-background:new 0 0 305 305;" xml:space="preserve">
<g>
	<path fill="#404040" d="M152.5,0C68.4,0,0,68.4,0,152.5S68.4,305,152.5,305S305,236.6,305,152.5S236.6,0,152.5,0z M152.5,280
		C82.2,280,25,222.8,25,152.5S82.2,25,152.5,25S280,82.2,280,152.5S222.8,280,152.5,280z"/>
	<circle fill="#404040" cx="152.9" cy="66.3" r="13"/>
	<path fill="#404040" d="M153,97.9L153,97.9c7.2,0,13,6.6,13,14.6v124c0,8.1-5.8,14.6-13,14.6h0c-7.2,0-13-6.6-13-14.6v-124
		C140,104.4,145.8,97.9,153,97.9z"/>
</g>
</svg>
